<svg width="30" height="25" viewBox="0 0 30 25" fill="none" xmlns="http://www.w3.org/2000/svg">
<path d="M28.8614 11.083H1.13861C0.544554 11.083 0 11.7271 0 12.5643C0 13.3372 0.49505 14.0457 1.13861 14.0457H28.8614C29.4554 14.0457 30 13.4016 30 12.5643C30 11.7271 29.4554 11.083 28.8614 11.083Z" fill="white"/>
<path d="M28.8614 22.0371H1.13861C0.544554 22.0371 0 22.6812 0 23.5185C0 24.3557 0.49505 24.9998 1.13861 24.9998H28.8614C29.4554 24.9998 30 24.3557 30 23.5185C30 22.6812 29.4554 22.0371 28.8614 22.0371Z" fill="white"/>
<path d="M1.13861 2.96268H28.8614C29.4554 2.96268 30 2.31862 30 1.48134C30 0.644061 29.5049 0 28.8614 0H1.13861C0.544554 0 0 0.644061 0 1.48134C0 2.31862 0.544554 2.96268 1.13861 2.96268Z" fill="white"/>
</svg>
