<svg width="30" height="34" viewBox="0 0 30 34" fill="none" xmlns="http://www.w3.org/2000/svg">
<path d="M5.0625 24.9519C5.0625 26.2132 6.05868 27.2551 7.38691 27.2551H8.88118V31.9163C8.88118 33.0679 9.82201 34.0001 10.9842 34.0001C12.1464 34.0001 13.0873 33.0679 13.0873 31.9163V27.2551H15.9098V31.9163C15.9098 33.0679 16.8506 34.0001 18.0128 34.0001C19.175 34.0001 20.1158 33.0679 20.1158 31.9163V27.2551H21.6101C22.883 27.2551 23.9345 26.268 23.9345 24.9519V11.4619H5.0625V24.9519Z" fill="white"/>
<path d="M19.285 3.18057L20.7239 0.548374C20.7793 0.383862 20.7793 0.21935 20.6686 0.164512C20.5579 -3.26857e-08 20.5026 0 20.5026 0C20.4472 0 20.2812 0.0548374 20.2812 0.164512L18.7869 2.85155C17.514 2.30317 16.1305 2.02899 14.7469 2.02899C13.2526 2.02899 11.9244 2.35801 10.7068 2.85155L9.21257 0.164512C9.15722 -3.26857e-08 8.99119 -0.0548374 8.82516 0.109675C8.65913 0.164512 8.60379 0.329025 8.76982 0.493537L10.2641 3.12573C7.16487 4.66118 5.2832 7.45789 5.2832 10.6933H24.2106C24.0999 7.40305 22.0522 4.66118 19.285 3.18057ZM10.2087 7.29338C9.82134 7.29338 9.43394 6.90952 9.43394 6.52566C9.43394 6.14179 9.82134 5.75793 10.2087 5.75793C10.5961 5.75793 10.9835 6.14179 10.9835 6.52566C10.9835 6.90952 10.7068 7.29338 10.2087 7.29338ZM18.953 7.29338C18.5656 7.29338 18.1782 6.90952 18.1782 6.52566C18.1782 6.14179 18.5656 5.75793 18.953 5.75793C19.3404 5.75793 19.7278 6.14179 19.7278 6.52566C19.7278 6.90952 19.3957 7.29338 18.953 7.29338Z" fill="white"/>
<path d="M2.18507 11.0771C1.02286 11.0771 0.0820312 12.0094 0.0820312 13.161V21.8801C0.0820312 23.0317 1.02286 23.9639 2.18507 23.9639C3.34729 23.9639 4.28812 23.0317 4.28812 21.8801V13.161C4.34346 11.9545 3.34729 11.0771 2.18507 11.0771Z" fill="white"/>
<path d="M26.978 11.0771C25.8158 11.0771 24.875 12.0094 24.875 13.161V21.8801C24.875 23.0317 25.8158 23.9639 26.978 23.9639C28.1402 23.9639 29.0811 23.0317 29.0811 21.8801V13.161C29.0811 11.9545 28.1402 11.0771 26.978 11.0771Z" fill="white"/>
</svg>
