<svg width="28" height="34" viewBox="0 0 28 34" fill="none" xmlns="http://www.w3.org/2000/svg">
<path d="M27.1058 11.5918C26.9063 11.7448 23.3844 13.7068 23.3844 18.0694C23.3844 23.1155 27.8659 24.9007 28 24.9449C27.9794 25.0537 27.2881 27.3898 25.6372 29.77C24.1651 31.8646 22.6277 33.9558 20.2889 33.9558C17.9501 33.9558 17.3482 32.6126 14.6483 32.6126C12.0172 32.6126 11.0817 34 8.94238 34C6.80308 34 5.31037 32.0618 3.59412 29.6816C1.60619 26.8865 0 22.5443 0 18.4231C0 11.8128 4.34738 8.30702 8.62594 8.30702C10.8994 8.30702 12.7945 9.78278 14.2218 9.78278C15.5804 9.78278 17.6991 8.21863 20.2855 8.21863C21.2657 8.21863 24.7876 8.30702 27.1058 11.5918ZM19.0576 5.42015C20.1273 4.16542 20.8839 2.42445 20.8839 0.683468C20.8839 0.442045 20.8633 0.197224 20.8186 0C19.0782 0.0646069 17.0077 1.14591 15.7592 2.57746C14.779 3.67917 13.8642 5.42015 13.8642 7.18492C13.8642 7.4502 13.9089 7.71536 13.9295 7.80035C14.0395 7.8208 14.2184 7.84458 14.3973 7.84458C15.9588 7.84458 17.9226 6.81087 19.0576 5.42015Z" fill="white"/>
</svg>
