<svg width="26" height="26" viewBox="0 0 26 26" fill="none" xmlns="http://www.w3.org/2000/svg">
<path d="M14.4002 13.0002L25.0752 2.3252C25.4689 1.93145 25.4689 1.31895 25.0752 0.925195C24.6814 0.531445 24.0689 0.531445 23.6752 0.925195L13.0002 11.6002L2.3252 0.925195C1.93145 0.531445 1.31895 0.531445 0.925195 0.925195C0.531445 1.31895 0.531445 1.93145 0.925195 2.3252L11.6002 13.0002L0.925195 23.6752C0.531445 24.0689 0.531445 24.6814 0.925195 25.0752C1.1002 25.2502 1.3627 25.3814 1.6252 25.3814C1.8877 25.3814 2.1502 25.2939 2.3252 25.0752L13.0002 14.4002L23.6752 25.0752C23.8502 25.2502 24.1127 25.3814 24.3752 25.3814C24.6377 25.3814 24.9002 25.2939 25.0752 25.0752C25.4689 24.6814 25.4689 24.0689 25.0752 23.6752L14.4002 13.0002Z" fill="white"/>
</svg>
