<svg width="37" height="29" viewBox="0 0 37 29" fill="none" xmlns="http://www.w3.org/2000/svg">
<path d="M22.0695 7.18852V15.9166C25.7327 17.7325 28.5818 15.9166 28.5818 11.2304C28.5818 6.42701 26.8374 4.31822 21.9532 2.5609C19.9763 1.91655 16.3713 0.80358 13.8711 0.334961V26.4605L19.7437 28.335V6.48559C19.7437 5.4312 20.2089 4.72827 20.9648 5.02115C21.837 5.19689 22.0695 6.1927 22.0695 7.18852Z" fill="white"/>
<path d="M33.6992 18.7282C31.2571 17.8495 28.1173 17.4981 25.617 17.7324C23.0587 17.9667 21.2562 18.6111 21.2562 18.6111L20.8492 18.7868V22.3014L27.1288 20.0755C28.1754 19.6654 29.7453 19.6069 30.6175 19.8998C31.4897 20.1341 31.3734 20.7198 30.2686 21.1299L20.791 24.4102V27.8663L33.6411 23.2387C33.6411 23.2387 35.3854 22.5943 36.0831 21.6571C36.7809 20.8956 36.4902 19.6654 33.6992 18.7282Z" fill="white"/>
<path d="M1.07913 20.7199C-0.200059 21.7157 0.265101 23.3559 3.1142 24.176C6.13776 25.1718 9.21944 25.4061 12.1267 24.9375C12.3011 24.9375 12.5337 24.8789 12.7081 24.8789V21.8329L9.74275 22.8873C8.69614 23.2973 7.12622 23.3559 6.25405 23.063C5.38188 22.8287 5.49817 22.2429 6.66106 21.8329L12.7081 19.6655V16.1509L4.2771 19.1969C4.33525 19.1383 2.30017 19.7827 1.07913 20.7199Z" fill="white"/>
</svg>
