<svg width="36" height="36" viewBox="0 0 36 36" fill="none" xmlns="http://www.w3.org/2000/svg">
<path d="M17.9419 0C8.53548 0 0.63871 7.2809 0 16.5265L9.63871 20.5136C10.4516 19.9358 11.4387 19.7047 12.4839 19.7047C12.5419 19.7047 12.7161 19.7047 12.7161 19.7047L16.9548 13.4061C16.9548 13.3483 16.9548 13.3483 16.9548 13.3483C16.9548 9.5923 19.9742 6.58748 23.7484 6.58748C27.5226 6.58748 30.6 9.5923 30.6 13.3483C30.6 17.1043 27.5806 20.1092 23.8065 20.1092C23.7484 20.1092 23.7484 20.1092 23.6323 20.1092L17.4774 24.5008C17.4774 24.5586 17.4774 24.6742 17.4774 24.7319C17.4774 27.5056 15.2129 29.8748 12.3097 29.8748C9.87097 29.8748 7.72258 28.0835 7.31613 25.8299L0.580645 22.8828C2.72903 30.3949 9.75484 36 17.9419 36C27.871 35.9422 36 27.9101 36 17.9711C36 8.03211 27.871 0 17.9419 0Z" fill="white"/>
<path d="M11.265 27.274L9.05859 26.4072C9.46505 27.2162 10.1038 27.9674 11.0328 28.2563C12.8909 29.0653 15.2134 28.1985 16.0263 26.2339C16.4328 25.2515 16.4328 24.2692 16.0263 23.2868C15.6199 22.3045 14.865 21.5533 13.9941 21.1488C13.065 20.7443 12.136 20.8021 11.207 21.091L13.4715 22.0733C14.865 22.709 15.6199 24.327 15.0392 25.7138C14.4005 27.1584 12.7747 27.7941 11.265 27.274Z" fill="white"/>
<path d="M28.4515 13.3482C28.4515 10.9212 26.4193 8.7832 23.8644 8.7832C21.4257 8.7832 19.2773 10.8057 19.2773 13.3482C19.2773 15.8907 21.4257 17.9132 23.8644 17.9132C26.3032 17.9132 28.4515 15.833 28.4515 13.3482ZM20.5548 13.3482C20.5548 11.4991 22.1225 9.99669 23.9225 9.99669C25.7806 9.99669 27.2902 11.5569 27.2902 13.3482C27.2902 15.1973 25.7225 16.6997 23.9225 16.6997C22.0644 16.7575 20.5548 15.1973 20.5548 13.3482Z" fill="white"/>
</svg>
